<svg version="1.2" xmlns="http://www.w3.org/2000/svg" viewBox="0 0 80 74" width="93" height="86">
	<title>signupUserIcon-svg</title>
	<defs>
		<clipPath clipPathUnits="userSpaceOnUse" id="cp1">
			<path d="m9.86 1.34h62.26v62.26h-62.26z"/>
		</clipPath>
		<clipPath clipPathUnits="userSpaceOnUse" id="cp2">
			<path d="m18.05 37.27h45.93v18.19h-45.93z"/>
		</clipPath>
		<clipPath clipPathUnits="userSpaceOnUse" id="cp3">
			<path d="m40.98 1.34c17.18 0 31.11 13.94 31.11 31.12 0 17.18-13.93 31.12-31.11 31.12-17.18 0-31.12-13.94-31.12-31.12 0-17.18 13.94-31.12 31.12-31.12z"/>
		</clipPath>
		<clipPath clipPathUnits="userSpaceOnUse" id="cp4">
			<path d="m35.33 41.82h11.37v0.91h-11.37z"/>
		</clipPath>
		<clipPath clipPathUnits="userSpaceOnUse" id="cp5">
			<path d="m40.98 1.34c17.18 0 31.11 13.94 31.11 31.12 0 17.18-13.93 31.12-31.11 31.12-17.18 0-31.12-13.94-31.12-31.12 0-17.18 13.94-31.12 31.12-31.12z"/>
		</clipPath>
		<clipPath clipPathUnits="userSpaceOnUse" id="cp6">
			<path d="m35.33 37.27h15.01v9.73h-15.01z"/>
		</clipPath>
		<clipPath clipPathUnits="userSpaceOnUse" id="cp7">
			<path d="m40.98 1.34c17.18 0 31.11 13.94 31.11 31.12 0 17.18-13.93 31.12-31.11 31.12-17.18 0-31.12-13.94-31.12-31.12 0-17.18 13.94-31.12 31.12-31.12z"/>
		</clipPath>
		<clipPath clipPathUnits="userSpaceOnUse" id="cp8">
			<path d="m28.05 25.9h3.64v6.37h-3.64z"/>
		</clipPath>
		<clipPath clipPathUnits="userSpaceOnUse" id="cp9">
			<path d="m40.98 1.34c17.18 0 31.11 13.94 31.11 31.12 0 17.18-13.93 31.12-31.11 31.12-17.18 0-31.12-13.94-31.12-31.12 0-17.18 13.94-31.12 31.12-31.12z"/>
		</clipPath>
		<clipPath clipPathUnits="userSpaceOnUse" id="cp10">
			<path d="m50 25.45h3.97v6.82h-3.97z"/>
		</clipPath>
		<clipPath clipPathUnits="userSpaceOnUse" id="cp11">
			<path d="m40.98 1.34c17.18 0 31.11 13.94 31.11 31.12 0 17.18-13.93 31.12-31.11 31.12-17.18 0-31.12-13.94-31.12-31.12 0-17.18 13.94-31.12 31.12-31.12z"/>
		</clipPath>
		<clipPath clipPathUnits="userSpaceOnUse" id="cp12">
			<path d="m29 8.62h23.61v31.83h-23.61z"/>
		</clipPath>
		<clipPath clipPathUnits="userSpaceOnUse" id="cp13">
			<path d="m40.98 1.34c17.18 0 31.11 13.94 31.11 31.12 0 17.18-13.93 31.12-31.11 31.12-17.18 0-31.12-13.94-31.12-31.12 0-17.18 13.94-31.12 31.12-31.12z"/>
		</clipPath>
		<clipPath clipPathUnits="userSpaceOnUse" id="cp14">
			<path d="m30.78 20.45h20.47v22.73h-20.47z"/>
		</clipPath>
		<clipPath clipPathUnits="userSpaceOnUse" id="cp15">
			<path d="m40.98 1.34c17.18 0 31.11 13.94 31.11 31.12 0 17.18-13.93 31.12-31.11 31.12-17.18 0-31.12-13.94-31.12-31.12 0-17.18 13.94-31.12 31.12-31.12z"/>
		</clipPath>
		<clipPath clipPathUnits="userSpaceOnUse" id="cp16">
			<path d="m17.59 46h46.84v17.58h-46.84z"/>
		</clipPath>
		<clipPath clipPathUnits="userSpaceOnUse" id="cp17">
			<path d="m40.98 1.34c17.18 0 31.11 13.94 31.11 31.12 0 17.18-13.93 31.12-31.11 31.12-17.18 0-31.12-13.94-31.12-31.12 0-17.18 13.94-31.12 31.12-31.12z"/>
		</clipPath>
		<clipPath clipPathUnits="userSpaceOnUse" id="cp18">
			<path d="m56.7 54.55h10.01v9.03h-10.01z"/>
		</clipPath>
		<clipPath clipPathUnits="userSpaceOnUse" id="cp19">
			<path d="m40.98 1.34c17.18 0 31.11 13.94 31.11 31.12 0 17.18-13.93 31.12-31.11 31.12-17.18 0-31.12-13.94-31.12-31.12 0-17.18 13.94-31.12 31.12-31.12z"/>
		</clipPath>
		<clipPath clipPathUnits="userSpaceOnUse" id="cp20">
			<path d="m15 54.55h10.32v9.03h-10.32z"/>
		</clipPath>
		<clipPath clipPathUnits="userSpaceOnUse" id="cp21">
			<path d="m40.98 1.34c17.18 0 31.11 13.94 31.11 31.12 0 17.18-13.93 31.12-31.11 31.12-17.18 0-31.12-13.94-31.12-31.12 0-17.18 13.94-31.12 31.12-31.12z"/>
		</clipPath>
		<clipPath clipPathUnits="userSpaceOnUse" id="cp22">
			<path d="m2.18 53h76.82v20.83h-76.82z"/>
		</clipPath>
		<clipPath clipPathUnits="userSpaceOnUse" id="cp23">
			<path d="m2.18 52.21h76.82v20.79h-76.82z"/>
		</clipPath>
		<clipPath clipPathUnits="userSpaceOnUse" id="cp24">
			<path d=""/>
		</clipPath>
		<clipPath clipPathUnits="userSpaceOnUse" id="cp25">
			<path d="m3 55h76v14h-76z"/>
		</clipPath>
	</defs>
	<style>
		.s0 { fill: #23a1d3 } 
		.s1 { fill: #f6d3a9 } 
		.s2 { fill: #1f91bd } 
		.s3 { fill: #ddbd98 } 
		.s4 { fill: #432918 } 
		.s5 { fill: #263774 } 
		.s6 { fill: #6f6f6f } 
		.s7 { fill: #d1cccc } 
		.s8 { fill: #000000 } 
	</style>
	<g id="Clip-Path" clip-path="url(#cp1)">
		<g id="Layer">
			<path id="Layer" class="s0" d="m41 1.3c17.2 0 31.1 14 31.1 31.2 0 17.1-13.9 31.1-31.1 31.1-17.2 0-31.1-14-31.1-31.1 0-17.2 13.9-31.2 31.1-31.2z"/>
		</g>
	</g>
	<g id="Clip-Path" clip-path="url(#cp2)">
		<g id="Layer">
			<g id="Clip-Path" clip-path="url(#cp3)">
				<g id="Layer">
					<path id="Layer" class="s1" d="m46.6 41.8v-4.3h-11.2v4.3c0 2.4-2.2 4.7-5 5.2l-7.3 2.1c-2.8 0.6-4.9 3.1-5 6h45.7c-0.1-2.9-2.1-5.4-5-6l-7.3-2.1c-2.7-0.5-4.9-2.8-4.9-5.2z"/>
				</g>
			</g>
		</g>
	</g>
	<g id="Clip-Path" clip-path="url(#cp4)">
		<g id="Layer">
			<g id="Clip-Path" clip-path="url(#cp5)">
				<g id="Layer">
					<path id="Layer" class="s2" d="m35.4 42.4q0-0.3 0-0.6 0 0.3 0 0.6zm0-0.6q0 0 0 0 0 0 0 0zm11.2 0q0 0 0 0 0 0 0 0zm-11.2 0q0 0 0 0 0 0 0 0z"/>
				</g>
			</g>
		</g>
	</g>
	<g id="Clip-Path" clip-path="url(#cp6)">
		<g id="Layer">
			<g id="Clip-Path" clip-path="url(#cp7)">
				<g id="Layer">
					<path id="Layer" class="s3" d="m46.9 47c-1.8 0-3.7-0.3-5.7-1-2.2-0.8-4.2-2-5.8-3.6q0-0.3 0-0.6 0 0 0 0 0 0 0 0v-4.3h11.2v4.3q0 0 0 0 0 0 0 0c0 1.9 1.4 3.8 3.5 4.7-0.9 0.3-2 0.5-3.2 0.5z"/>
				</g>
			</g>
		</g>
	</g>
	<g id="Clip-Path" clip-path="url(#cp8)">
		<g id="Layer">
			<g id="Clip-Path" clip-path="url(#cp9)">
				<g id="Layer">
					<path id="Layer" class="s1" d="m28.5 28.5c0.4 1.8 1.8 3.8 2.5 3.7 0.6-0.1 0.8-1.7 0.4-3.4-0.3-1.7-1.2-3-1.8-2.9-0.7 0.2-1.5 0.9-1.1 2.6z"/>
				</g>
			</g>
		</g>
	</g>
	<g id="Clip-Path" clip-path="url(#cp10)">
		<g id="Layer">
			<g id="Clip-Path" clip-path="url(#cp11)">
				<g id="Layer">
					<path id="Layer" class="s1" d="m53.5 28.5c-0.4 1.8-1.8 3.8-2.5 3.7-0.7-0.1-0.9-1.7-0.5-3.4 0.4-1.7 1.2-3 1.9-2.9 0.6 0.1 1.5 0.9 1.1 2.6z"/>
				</g>
			</g>
		</g>
	</g>
	<g id="Clip-Path" clip-path="url(#cp12)">
		<g id="Layer">
			<g id="Clip-Path" clip-path="url(#cp13)">
				<g id="Layer">
					<path id="Layer" class="s4" d="m52.1 24.5c0 8.6-6.3 15.6-11.1 15.6-4.5 0-11.1-7-11.1-15.6-1.2-6.3-2.3-19.5 17.7-14.6 1 5.9 6.1 5.5 4.5 14.6z"/>
				</g>
			</g>
		</g>
	</g>
	<g id="Clip-Path" clip-path="url(#cp14)">
		<g id="Layer">
			<g id="Clip-Path" clip-path="url(#cp15)">
				<g id="Layer">
					<path id="Layer" class="s1" d="m51 30.6c-1.2-0.4 0.5-5.8 0-7.7-1.4-3.8-5.3-1.7-10.1-1.7-4.8 0-8.7-2.1-9.9 1.7-0.6 1.9 1.1 7.1-0.1 7.5 0.5 2.3 2.1 8.2 2.1 8.2 0 0 5.5 4.5 8 4.5 2.6 0 7.9-4.5 7.9-4.5 0 0 1.7-5.9 2.1-8z"/>
				</g>
			</g>
		</g>
	</g>
	<g id="Clip-Path" clip-path="url(#cp16)">
		<g id="Layer">
			<g id="Clip-Path" clip-path="url(#cp17)">
				<g id="Layer">
					<path id="Layer" class="s5" d="m59 49l-8.6-2.8c-3.3 2.6-9.4 6-18.9 0l-8.5 2.8c-2.9 0.6-5 3-5.1 6l7.3 18.5-0.1 19.8-0.6 6.7 16.3 0.8 16.7-0.8-1.1-6.7 0.4-19.8 7.2-18.5c-0.1-3-2.2-5.4-5-6z"/>
				</g>
			</g>
		</g>
	</g>
	<g id="Clip-Path" clip-path="url(#cp18)">
		<g id="Layer">
			<g id="Clip-Path" clip-path="url(#cp19)">
				<g id="Layer">
					<path id="Layer" class="s5" d="m59.3 102.8h6.2l1.1-13.8q0.2-2.9-0.1-5.7l-2.5-28.3-7.2 18.5 2.1 11.9z"/>
				</g>
			</g>
		</g>
	</g>
	<g id="Clip-Path" clip-path="url(#cp20)">
		<g id="Layer">
			<g id="Clip-Path" clip-path="url(#cp21)">
				<g id="Layer">
					<path id="Layer" class="s5" d="m16.4 102.8h6.3l0.3-17.5 2.2-11.8-7.3-18.5-2.5 28.3q-0.2 2.8 0 5.7z"/>
				</g>
			</g>
		</g>
	</g>
	<g id="Clip-Path" clip-path="url(#cp22)">
		<g id="Layer">
			<path id="Layer" class="s6" d="m75.3 73.8h-69.3c-2 0-3.7-1.6-3.7-3.6v-13c0-2 1.7-3.6 3.7-3.6h69.3c2.1 0 3.7 1.6 3.7 3.6v13c0 2-1.6 3.6-3.7 3.6z"/>
		</g>
	</g>
	<g id="Clip-Path" clip-path="url(#cp23)">
		<g id="Layer">
			<path id="Layer" class="s7" d="m75.3 72.5h-69.3c-2 0-3.7-1.7-3.7-3.7v-13c0-2 1.7-3.6 3.7-3.6h69.3c2.1 0 3.7 1.6 3.7 3.6v13c0 2-1.6 3.7-3.7 3.7z"/>
		</g>
	</g>
	<g id="Clip-Path" clip-path="url(#cp24)">
		<g id="Layer">
			<g id="Layer">
				<g id="Clip-Path" clip-path="url(#cp25)">
					<g id="Layer">
						<g id="Layer">
							<g id="Layer">
								<g id="Layer">
									<path id="Layer" class="s8" d="m9.8 57.9h0.9v5.1q0 0.9-0.4 1.5-0.4 0.6-1.1 0.9-0.7 0.3-1.5 0.3-0.8 0-1.5-0.3-0.7-0.3-1.1-0.9-0.4-0.6-0.4-1.5v-5.1h0.9v5.1q0 0.6 0.3 1 0.3 0.4 0.8 0.6 0.4 0.3 1 0.3 0.6 0 1-0.3 0.5-0.2 0.8-0.6 0.3-0.4 0.3-1z"/>
								</g>
							</g>
						</g>
						<g id="Layer">
							<g id="Layer">
								<g id="Layer">
									<path id="Layer" fill-rule="evenodd" class="s8" d="m12.4 67.8v-8h0.9v0.9h0.1q0.1-0.1 0.3-0.4 0.1-0.2 0.5-0.4 0.3-0.2 0.9-0.2 0.7 0 1.3 0.4 0.5 0.4 0.8 1 0.3 0.7 0.3 1.6 0 0.9-0.3 1.6-0.3 0.7-0.8 1.1-0.6 0.3-1.3 0.3-0.6 0-0.9-0.2-0.3-0.2-0.5-0.4-0.2-0.2-0.3-0.4h-0.1v3.1zm0.9-5.1q0 1 0.4 1.6 0.5 0.6 1.3 0.6 0.5 0 0.9-0.3 0.4-0.3 0.5-0.8 0.2-0.5 0.2-1.1 0-0.6-0.1-1.1-0.2-0.5-0.6-0.8-0.4-0.3-0.9-0.3-0.9 0-1.3 0.6-0.4 0.6-0.4 1.6z"/>
								</g>
							</g>
						</g>
						<g id="Layer">
							<g id="Layer">
								<g id="Layer">
									<path id="Layer" class="s8" d="m19.8 57.9v7.7h-0.9v-7.7z"/>
								</g>
							</g>
						</g>
						<g id="Layer">
							<g id="Layer">
								<g id="Layer">
									<path id="Layer" fill-rule="evenodd" class="s8" d="m23.7 65.7q-0.7 0-1.3-0.4-0.6-0.3-0.9-1-0.4-0.7-0.4-1.6 0-0.9 0.4-1.5 0.3-0.7 0.9-1.1 0.6-0.4 1.3-0.4 0.8 0 1.4 0.4 0.6 0.4 0.9 1.1 0.4 0.6 0.4 1.5 0 0.9-0.4 1.6-0.3 0.7-0.9 1-0.6 0.4-1.4 0.4zm0-0.8q0.6 0 1-0.3 0.4-0.3 0.6-0.8 0.2-0.5 0.2-1.1 0-0.5-0.2-1-0.2-0.5-0.6-0.9-0.4-0.3-1-0.3-0.6 0-0.9 0.3-0.4 0.4-0.6 0.9-0.2 0.5-0.2 1 0 0.6 0.2 1.1 0.2 0.5 0.6 0.8 0.3 0.3 0.9 0.3z"/>
								</g>
							</g>
						</g>
						<g id="Layer">
							<g id="Layer">
								<g id="Layer">
									<path id="Layer" fill-rule="evenodd" class="s8" d="m29.4 65.7q-0.5 0-1-0.2-0.4-0.2-0.7-0.6-0.2-0.4-0.2-0.9 0-0.5 0.1-0.8 0.2-0.4 0.6-0.5 0.3-0.2 0.7-0.3 0.4-0.1 0.8-0.2 0.5 0 0.9 0 0.3-0.1 0.4-0.2 0.2-0.1 0.2-0.3 0-0.6-0.3-0.9-0.3-0.3-0.9-0.3-0.7 0-1 0.3-0.4 0.3-0.5 0.6l-0.9-0.3q0.2-0.5 0.6-0.8 0.4-0.3 0.9-0.4 0.4-0.2 0.8-0.2 0.3 0 0.7 0.1 0.3 0.1 0.7 0.3 0.3 0.2 0.5 0.6 0.3 0.4 0.3 1.1v3.8h-0.9v-0.8h-0.1q-0.1 0.2-0.3 0.4-0.2 0.2-0.5 0.4-0.4 0.1-0.9 0.1zm0.2-0.8q0.5 0 0.8-0.2 0.4-0.2 0.6-0.5 0.2-0.3 0.2-0.7v-0.8q-0.1 0.1-0.3 0.1-0.1 0.1-0.4 0.1-0.2 0-0.5 0.1-0.2 0-0.4 0-0.3 0.1-0.6 0.2-0.3 0.1-0.5 0.3-0.2 0.2-0.2 0.5 0 0.5 0.4 0.7 0.3 0.2 0.9 0.2z"/>
								</g>
							</g>
						</g>
						<g id="Layer">
							<g id="Layer">
								<g id="Layer">
									<path id="Layer" fill-rule="evenodd" class="s8" d="m35.9 65.7q-0.8 0-1.3-0.3-0.5-0.4-0.9-1.1-0.3-0.7-0.3-1.6 0-0.9 0.3-1.6 0.4-0.6 0.9-1 0.6-0.4 1.3-0.4 0.6 0 0.9 0.2 0.3 0.2 0.5 0.4 0.2 0.3 0.3 0.4v-2.8h0.9v7.7h-0.8v-0.9h-0.1q-0.1 0.2-0.3 0.4-0.2 0.2-0.5 0.4-0.4 0.2-0.9 0.2zm0.1-0.8q0.8 0 1.2-0.6 0.4-0.6 0.4-1.6 0-1-0.4-1.6-0.4-0.6-1.2-0.6-0.6 0-0.9 0.3-0.4 0.3-0.6 0.8-0.2 0.5-0.2 1.1 0 0.6 0.2 1.1 0.2 0.5 0.6 0.8 0.3 0.3 0.9 0.3z"/>
								</g>
							</g>
						</g>
						<g id="Layer">
							<g id="Layer">
								<g id="Layer">
								</g>
							</g>
						</g>
						<g id="Layer">
							<g id="Layer">
								<g id="Layer">
									<path id="Layer" fill-rule="evenodd" class="s8" d="m43.4 65.6v-7.7h2.6q0.9 0 1.5 0.3 0.5 0.3 0.8 0.9 0.3 0.5 0.3 1.2 0 0.7-0.3 1.3-0.3 0.5-0.8 0.9-0.6 0.3-1.5 0.3h-1.7v2.8zm0.9-3.6h1.7q0.9 0 1.3-0.5 0.4-0.5 0.4-1.2 0-0.7-0.4-1.1-0.4-0.5-1.3-0.5h-1.7z"/>
								</g>
							</g>
						</g>
						<g id="Layer">
							<g id="Layer">
								<g id="Layer">
									<path id="Layer" class="s8" d="m50 65.6v-5.8h0.9v5.8zm0.4-6.7q-0.2 0-0.4-0.2-0.2-0.2-0.2-0.5 0-0.2 0.2-0.4 0.2-0.2 0.4-0.2 0.3 0 0.5 0.2 0.1 0.2 0.1 0.4 0 0.3-0.1 0.5-0.2 0.2-0.5 0.2z"/>
								</g>
							</g>
						</g>
						<g id="Layer">
							<g id="Layer">
								<g id="Layer">
									<path id="Layer" class="s8" d="m54.8 65.7q-0.8 0-1.4-0.4-0.6-0.3-0.9-1-0.3-0.7-0.3-1.6 0-0.8 0.3-1.5 0.4-0.7 0.9-1.1 0.6-0.4 1.4-0.4 0.6 0 1.1 0.3 0.5 0.2 0.8 0.6 0.3 0.4 0.4 0.9h-0.9q-0.1-0.3-0.4-0.7-0.4-0.3-1-0.3-0.8 0-1.2 0.6-0.5 0.6-0.5 1.6 0 1 0.5 1.6 0.4 0.6 1.2 0.6 0.5 0 0.9-0.2 0.4-0.3 0.5-0.8h0.9q-0.1 0.5-0.4 0.9-0.3 0.4-0.7 0.7-0.5 0.2-1.2 0.2z"/>
								</g>
							</g>
						</g>
						<g id="Layer">
							<g id="Layer">
								<g id="Layer">
									<path id="Layer" class="s8" d="m60.9 59.8v0.8h-1.2v3.3q0 0.4 0.1 0.6 0.1 0.2 0.3 0.2 0.1 0.1 0.3 0.1 0.2 0 0.3 0 0.1 0 0.1 0l0.2 0.8q-0.1 0-0.2 0-0.2 0.1-0.4 0.1-0.4 0-0.8-0.2-0.3-0.2-0.6-0.5-0.2-0.3-0.2-0.8v-3.6h-0.9v-0.8h0.9v-1.4h0.9v1.4z"/>
								</g>
							</g>
						</g>
						<g id="Layer">
							<g id="Layer">
								<g id="Layer">
									<path id="Layer" class="s8" d="m65.9 63.2v-3.4h0.9v5.8h-0.9v-1h-0.1q-0.2 0.5-0.6 0.8-0.4 0.3-1.1 0.3-0.8 0-1.3-0.6-0.5-0.5-0.5-1.6v-3.7h0.8v3.6q0 0.7 0.4 1 0.3 0.4 0.9 0.4 0.3 0 0.7-0.2 0.3-0.1 0.6-0.5 0.2-0.3 0.2-0.9z"/>
								</g>
							</g>
						</g>
						<g id="Layer">
							<g id="Layer">
								<g id="Layer">
									<path id="Layer" class="s8" d="m68.4 65.6v-5.8h0.9v0.9q0.2-0.4 0.6-0.7 0.4-0.3 0.9-0.3 0.3 0 0.4 0.1 0.2 0 0.4 0.1l-0.3 0.8q-0.1-0.1-0.3-0.1-0.1 0-0.3 0-0.6 0-1 0.4-0.4 0.4-0.4 0.9v3.7z"/>
								</g>
							</g>
						</g>
						<g id="Layer">
							<g id="Layer">
								<g id="Layer">
									<path id="Layer" fill-rule="evenodd" class="s8" d="m74.9 65.7q-0.8 0-1.4-0.4-0.7-0.3-1-1-0.3-0.7-0.3-1.6 0-0.8 0.3-1.5 0.3-0.7 0.9-1.1 0.6-0.4 1.4-0.4 0.4 0 0.9 0.2 0.4 0.1 0.8 0.5 0.4 0.3 0.6 0.9 0.2 0.5 0.2 1.3v0.4h-4.2q0 0.9 0.5 1.4 0.5 0.5 1.3 0.5 0.5 0 0.9-0.2 0.4-0.2 0.5-0.7l0.9 0.2q-0.2 0.7-0.8 1.1-0.6 0.4-1.5 0.4zm-1.8-3.5h3.3q0-0.7-0.4-1.2-0.5-0.5-1.2-0.5-0.5 0-0.9 0.3-0.4 0.2-0.6 0.6-0.2 0.4-0.2 0.8z"/>
								</g>
							</g>
						</g>
					</g>
				</g>
			</g>
		</g>
	</g>
	<path id="Upload picture" class="s8" aria-label="Upload picture"  d="m11.7 58.7v4.8c0 1-0.8 1.8-2 1.8-1.2 0-1.9-0.8-1.9-1.8v-4.8h-0.9v4.8c0 1.5 1.1 2.6 2.8 2.6 1.7 0 2.8-1.1 2.8-2.6v-4.8zm2.6 9.3h0.8v-2.8h0.1c0.2 0.3 0.5 0.9 1.6 0.9 1.3 0 2.3-1.1 2.3-2.8 0-1.7-1-2.8-2.4-2.8-1 0-1.3 0.6-1.5 0.9h-0.1v-0.9h-0.8zm0.8-4.7c0-1.2 0.5-2.1 1.5-2.1 1.1 0 1.6 0.9 1.6 2.1 0 1.1-0.5 2.1-1.6 2.1-1 0-1.5-0.9-1.5-2.1zm6.1-4.6h-0.8v7.3h0.8zm3.7 7.4c1.5 0 2.5-1.1 2.5-2.8 0-1.7-1-2.9-2.5-2.9-1.4 0-2.4 1.2-2.4 2.9 0 1.7 1 2.8 2.4 2.8zm0-0.8c-1.1 0-1.6-0.9-1.6-2 0-1.1 0.5-2.1 1.6-2.1 1.2 0 1.7 1 1.7 2.1 0 1.1-0.5 2-1.7 2zm5.4 0.8c1 0 1.4-0.5 1.6-0.9h0.1v0.8h0.8v-3.6c0-1.8-1.3-2-2-2-0.8 0-1.8 0.3-2.2 1.3l0.8 0.3c0.2-0.4 0.6-0.8 1.4-0.8 0.8 0 1.2 0.4 1.2 1.1 0 0.4-0.5 0.4-1.4 0.5-1.1 0.2-2.2 0.4-2.2 1.6 0 1.1 0.9 1.7 1.9 1.7zm0.1-0.8c-0.6 0-1.1-0.3-1.1-0.8 0-0.7 0.6-0.9 1.2-1 0.4 0 1.3-0.1 1.5-0.3v0.8c0 0.7-0.6 1.3-1.6 1.3zm6 0.8c1 0 1.4-0.7 1.6-1h0.1v0.9h0.8v-7.3h-0.8v2.7h-0.1c-0.2-0.3-0.5-1-1.6-1-1.4 0-2.3 1.1-2.3 2.9 0 1.7 0.9 2.8 2.3 2.8zm0.1-0.8c-1 0-1.6-0.9-1.6-2.1 0-1.1 0.5-2 1.6-2 1 0 1.6 0.8 1.6 2 0 1.3-0.6 2.1-1.6 2.1zm6.9 2.7h0.8v-2.9h0.1c0.1 0.3 0.5 1 1.6 1 1.3 0 2.3-1.1 2.3-2.8 0-1.8-1-2.9-2.4-2.9-1 0-1.4 0.7-1.5 1h-0.1v-0.9h-0.8zm0.8-4.8c0-1.2 0.5-2 1.5-2 1.1 0 1.6 0.9 1.6 2 0 1.2-0.5 2.1-1.6 2.1-1 0-1.5-0.8-1.5-2.1zm5.2 2.8h0.9v-5.5h-0.9zm0.5-6.3c0.3 0 0.6-0.3 0.6-0.6 0-0.3-0.3-0.6-0.6-0.6-0.4 0-0.6 0.3-0.6 0.6 0 0.3 0.2 0.6 0.6 0.6zm4.1 6.4c1.2 0 2-0.7 2.2-1.7h-0.9c-0.1 0.6-0.6 1-1.3 1-1 0-1.6-0.8-1.6-2.1 0-1.2 0.7-2.1 1.6-2.1 0.8 0 1.2 0.5 1.3 1h0.9c-0.2-1-1-1.7-2.2-1.7-1.5 0-2.4 1.2-2.4 2.8 0 1.7 0.9 2.8 2.4 2.8zm5.8-5.5h-1.2v-1.3h-0.8v1.3h-0.9v0.7h0.9v3.4c0 0.9 0.7 1.4 1.4 1.4 0.4 0 0.6-0.1 0.7-0.1l-0.2-0.8c-0.1 0.1-0.2 0.1-0.4 0.1-0.3 0-0.7-0.1-0.7-0.8v-3.2h1.2zm4.7 3.2c0 1-0.8 1.5-1.4 1.5-0.7 0-1.2-0.5-1.2-1.3v-3.4h-0.9v3.4c0 1.4 0.8 2.1 1.8 2.1 0.8 0 1.4-0.4 1.6-1h0.1v0.9h0.8v-5.4h-0.8zm2.3 2.2h0.9v-3.4c0-0.8 0.6-1.3 1.4-1.3 0.2 0 0.4 0 0.5 0v-0.8c-0.1 0-0.3 0-0.5 0-0.6 0-1.2 0.3-1.4 0.9v-0.9h-0.9zm5.9 0.2c1.1 0 1.9-0.6 2.2-1.4l-0.9-0.2c-0.2 0.5-0.7 0.8-1.3 0.8-1 0-1.7-0.6-1.7-1.8h3.9v-0.3c0-2.1-1.2-2.8-2.3-2.8-1.5 0-2.5 1.2-2.5 2.9 0 1.6 1 2.8 2.6 2.8zm-1.7-3.3c0-0.9 0.6-1.6 1.6-1.6 0.9 0 1.5 0.7 1.5 1.6z"/>
</svg>