<svg xmlns="http://www.w3.org/2000/svg" xmlns:xlink="http://www.w3.org/1999/xlink" width="309" zoomAndPan="magnify" viewBox="0 0 231.75 224.249992" height="299" preserveAspectRatio="xMidYMid meet" version="1.0"><defs><filter x="0%" y="0%" width="100%" height="100%" id="de3f172371"><feColorMatrix values="0 0 0 0 1 0 0 0 0 1 0 0 0 0 1 0 0 0 1 0" color-interpolation-filters="sRGB"/></filter><g/><clipPath id="21d5094349"><path d="M 84.863281 75.34375 L 147.117188 75.34375 L 147.117188 137.597656 L 84.863281 137.597656 Z M 84.863281 75.34375 " clip-rule="nonzero"/></clipPath><clipPath id="32fc689b34"><path d="M 93.046875 111.269531 L 138.976562 111.269531 L 138.976562 129.460938 L 93.046875 129.460938 Z M 93.046875 111.269531 " clip-rule="nonzero"/></clipPath><clipPath id="239ad68444"><path d="M 115.980469 75.34375 C 133.164062 75.34375 147.09375 89.277344 147.09375 106.460938 C 147.09375 123.644531 133.164062 137.578125 115.980469 137.578125 C 98.796875 137.578125 84.863281 123.644531 84.863281 106.460938 C 84.863281 89.277344 98.796875 75.34375 115.980469 75.34375 " clip-rule="nonzero"/></clipPath><clipPath id="aa74f0f9ae"><path d="M 110.328125 115.816406 L 121.695312 115.816406 L 121.695312 116.726562 L 110.328125 116.726562 Z M 110.328125 115.816406 " clip-rule="nonzero"/></clipPath><clipPath id="653723569a"><path d="M 115.980469 75.34375 C 133.164062 75.34375 147.09375 89.277344 147.09375 106.460938 C 147.09375 123.644531 133.164062 137.578125 115.980469 137.578125 C 98.796875 137.578125 84.863281 123.644531 84.863281 106.460938 C 84.863281 89.277344 98.796875 75.34375 115.980469 75.34375 " clip-rule="nonzero"/></clipPath><clipPath id="b3e8604a4d"><path d="M 110.328125 111.269531 L 125.335938 111.269531 L 125.335938 121 L 110.328125 121 Z M 110.328125 111.269531 " clip-rule="nonzero"/></clipPath><clipPath id="3e9ec674c5"><path d="M 115.980469 75.34375 C 133.164062 75.34375 147.09375 89.277344 147.09375 106.460938 C 147.09375 123.644531 133.164062 137.578125 115.980469 137.578125 C 98.796875 137.578125 84.863281 123.644531 84.863281 106.460938 C 84.863281 89.277344 98.796875 75.34375 115.980469 75.34375 " clip-rule="nonzero"/></clipPath><clipPath id="d863f13bdf"><path d="M 103.054688 99.902344 L 106.691406 99.902344 L 106.691406 106.269531 L 103.054688 106.269531 Z M 103.054688 99.902344 " clip-rule="nonzero"/></clipPath><clipPath id="05d957d8fc"><path d="M 115.980469 75.34375 C 133.164062 75.34375 147.09375 89.277344 147.09375 106.460938 C 147.09375 123.644531 133.164062 137.578125 115.980469 137.578125 C 98.796875 137.578125 84.863281 123.644531 84.863281 106.460938 C 84.863281 89.277344 98.796875 75.34375 115.980469 75.34375 " clip-rule="nonzero"/></clipPath><clipPath id="66e4da2daa"><path d="M 125 99.445312 L 128.972656 99.445312 L 128.972656 106.269531 L 125 106.269531 Z M 125 99.445312 " clip-rule="nonzero"/></clipPath><clipPath id="ac2a30f6e1"><path d="M 115.980469 75.34375 C 133.164062 75.34375 147.09375 89.277344 147.09375 106.460938 C 147.09375 123.644531 133.164062 137.578125 115.980469 137.578125 C 98.796875 137.578125 84.863281 123.644531 84.863281 106.460938 C 84.863281 89.277344 98.796875 75.34375 115.980469 75.34375 " clip-rule="nonzero"/></clipPath><clipPath id="b413b7e68a"><path d="M 104 82.621094 L 127.609375 82.621094 L 127.609375 114.453125 L 104 114.453125 Z M 104 82.621094 " clip-rule="nonzero"/></clipPath><clipPath id="869140af81"><path d="M 115.980469 75.34375 C 133.164062 75.34375 147.09375 89.277344 147.09375 106.460938 C 147.09375 123.644531 133.164062 137.578125 115.980469 137.578125 C 98.796875 137.578125 84.863281 123.644531 84.863281 106.460938 C 84.863281 89.277344 98.796875 75.34375 115.980469 75.34375 " clip-rule="nonzero"/></clipPath><clipPath id="9d417940d6"><path d="M 105.78125 94.445312 L 126.246094 94.445312 L 126.246094 117.179688 L 105.78125 117.179688 Z M 105.78125 94.445312 " clip-rule="nonzero"/></clipPath><clipPath id="04876ad0b3"><path d="M 115.980469 75.34375 C 133.164062 75.34375 147.09375 89.277344 147.09375 106.460938 C 147.09375 123.644531 133.164062 137.578125 115.980469 137.578125 C 98.796875 137.578125 84.863281 123.644531 84.863281 106.460938 C 84.863281 89.277344 98.796875 75.34375 115.980469 75.34375 " clip-rule="nonzero"/></clipPath><clipPath id="3bd22d120d"><path d="M 92.59375 120 L 139.433594 120 L 139.433594 137.578125 L 92.59375 137.578125 Z M 92.59375 120 " clip-rule="nonzero"/></clipPath><clipPath id="788017c5a6"><path d="M 115.980469 75.34375 C 133.164062 75.34375 147.09375 89.277344 147.09375 106.460938 C 147.09375 123.644531 133.164062 137.578125 115.980469 137.578125 C 98.796875 137.578125 84.863281 123.644531 84.863281 106.460938 C 84.863281 89.277344 98.796875 75.34375 115.980469 75.34375 " clip-rule="nonzero"/></clipPath><clipPath id="c4fd20f6a9"><path d="M 131.703125 128.550781 L 141.707031 128.550781 L 141.707031 137.578125 L 131.703125 137.578125 Z M 131.703125 128.550781 " clip-rule="nonzero"/></clipPath><clipPath id="08462bafb2"><path d="M 115.980469 75.34375 C 133.164062 75.34375 147.09375 89.277344 147.09375 106.460938 C 147.09375 123.644531 133.164062 137.578125 115.980469 137.578125 C 98.796875 137.578125 84.863281 123.644531 84.863281 106.460938 C 84.863281 89.277344 98.796875 75.34375 115.980469 75.34375 " clip-rule="nonzero"/></clipPath><clipPath id="aa7cf07cb2"><path d="M 90 128.550781 L 100.324219 128.550781 L 100.324219 137.578125 L 90 137.578125 Z M 90 128.550781 " clip-rule="nonzero"/></clipPath><clipPath id="4fe64a6ff0"><path d="M 115.980469 75.34375 C 133.164062 75.34375 147.09375 89.277344 147.09375 106.460938 C 147.09375 123.644531 133.164062 137.578125 115.980469 137.578125 C 98.796875 137.578125 84.863281 123.644531 84.863281 106.460938 C 84.863281 89.277344 98.796875 75.34375 115.980469 75.34375 " clip-rule="nonzero"/></clipPath><clipPath id="e6252f8496"><path d="M 77.183594 127 L 154 127 L 154 147.832031 L 77.183594 147.832031 Z M 77.183594 127 " clip-rule="nonzero"/></clipPath><clipPath id="73bf977e3a"><path d="M 77.183594 126.214844 L 154 126.214844 L 154 147 L 77.183594 147 Z M 77.183594 126.214844 " clip-rule="nonzero"/></clipPath><mask id="339855e313"><g filter="url(#de3f172371)"><rect x="-23.175" width="278.1" fill="#000000" y="-22.424999" height="269.09999" fill-opacity="0.8"/></g></mask><clipPath id="5ffc3da21e"><rect x="0" width="76" y="0" height="14"/></clipPath></defs><g clip-path="url(#21d5094349)"><path fill="#23a1d3" d="M 115.980469 75.34375 C 133.164062 75.34375 147.09375 89.277344 147.09375 106.460938 C 147.09375 123.644531 133.164062 137.578125 115.980469 137.578125 C 98.792969 137.578125 84.863281 123.644531 84.863281 106.460938 C 84.863281 89.277344 98.792969 75.34375 115.980469 75.34375 " fill-opacity="1" fill-rule="nonzero"/></g><g clip-path="url(#32fc689b34)"><g clip-path="url(#239ad68444)"><path fill="#f6d3a9" d="M 121.558594 115.816406 L 121.558594 111.519531 L 110.390625 111.519531 L 110.390625 115.816406 C 110.390625 118.179688 108.15625 120.496094 105.390625 120.984375 L 98.113281 123.128906 C 95.269531 123.714844 93.199219 126.183594 93.113281 129.085938 L 138.824219 129.085938 C 138.738281 126.183594 136.667969 123.714844 133.820312 123.128906 L 126.542969 120.984375 C 123.800781 120.476562 121.558594 118.164062 121.558594 115.816406 " fill-opacity="1" fill-rule="nonzero"/></g></g><g clip-path="url(#aa74f0f9ae)"><g clip-path="url(#653723569a)"><path fill="#1f91bd" d="M 110.351562 116.359375 C 110.378906 116.183594 110.390625 116.007812 110.390625 115.835938 C 110.390625 116.011719 110.378906 116.1875 110.351562 116.359375 M 110.390625 115.832031 C 110.390625 115.832031 110.390625 115.828125 110.390625 115.824219 C 110.390625 115.828125 110.390625 115.832031 110.390625 115.832031 M 121.558594 115.832031 C 121.558594 115.832031 121.558594 115.832031 121.558594 115.828125 C 121.558594 115.832031 121.558594 115.832031 121.558594 115.832031 M 121.558594 115.824219 L 121.558594 115.824219 M 110.390625 115.824219 C 110.390625 115.824219 110.390625 115.820312 110.390625 115.816406 C 110.390625 115.820312 110.390625 115.824219 110.390625 115.824219 " fill-opacity="1" fill-rule="nonzero"/></g></g><g clip-path="url(#b3e8604a4d)"><g clip-path="url(#3e9ec674c5)"><path fill="#ddbd98" d="M 121.851562 120.96875 C 120.128906 120.96875 118.175781 120.652344 116.199219 119.964844 C 114.011719 119.203125 112.015625 117.972656 110.351562 116.359375 C 110.378906 116.1875 110.390625 116.011719 110.390625 115.835938 C 110.390625 115.835938 110.390625 115.832031 110.390625 115.832031 C 110.390625 115.832031 110.390625 115.828125 110.390625 115.824219 C 110.390625 115.824219 110.390625 115.820312 110.390625 115.816406 L 110.390625 111.519531 L 121.558594 111.519531 L 121.558594 115.816406 C 121.558594 115.820312 121.558594 115.820312 121.558594 115.824219 C 121.558594 115.824219 121.558594 115.828125 121.558594 115.828125 C 121.558594 115.832031 121.558594 115.832031 121.558594 115.832031 C 121.566406 117.746094 123.039062 119.617188 125.0625 120.523438 C 124.152344 120.8125 123.054688 120.96875 121.851562 120.96875 " fill-opacity="1" fill-rule="nonzero"/></g></g><g clip-path="url(#d863f13bdf)"><g clip-path="url(#05d957d8fc)"><path fill="#f6d3a9" d="M 103.476562 102.539062 C 103.855469 104.257812 105.292969 106.289062 105.957031 106.175781 C 106.625 106.0625 106.820312 104.523438 106.441406 102.800781 C 106.0625 101.078125 105.238281 99.796875 104.59375 99.9375 C 103.949219 100.078125 103.097656 100.8125 103.476562 102.539062 " fill-opacity="1" fill-rule="nonzero"/></g></g><g clip-path="url(#66e4da2daa)"><g clip-path="url(#ac2a30f6e1)"><path fill="#f6d3a9" d="M 128.476562 102.539062 C 128.105469 104.257812 126.660156 106.289062 125.992188 106.175781 C 125.328125 106.0625 125.132812 104.523438 125.511719 102.800781 C 125.890625 101.078125 126.699219 99.773438 127.359375 99.902344 C 128.019531 100.027344 128.855469 100.8125 128.476562 102.539062 " fill-opacity="1" fill-rule="nonzero"/></g></g><g clip-path="url(#b413b7e68a)"><g clip-path="url(#869140af81)"><path fill="#432918" d="M 127.09375 98.511719 C 127.09375 107.113281 120.753906 114.089844 115.976562 114.089844 C 111.515625 114.089844 104.871094 107.113281 104.871094 98.511719 C 103.667969 92.234375 102.597656 79.039062 122.5625 83.878906 C 123.617188 89.777344 128.667969 89.386719 127.09375 98.511719 " fill-opacity="1" fill-rule="nonzero"/></g></g><g clip-path="url(#9d417940d6)"><g clip-path="url(#04876ad0b3)"><path fill="#f6d3a9" d="M 126.035156 104.558594 C 124.789062 104.195312 126.488281 98.78125 125.953125 96.855469 C 124.621094 93.117188 120.679688 95.234375 115.886719 95.234375 C 111.09375 95.234375 107.246094 93.105469 105.976562 96.878906 C 105.449219 98.8125 107.140625 104.03125 105.902344 104.398438 C 106.359375 106.730469 107.992188 112.585938 107.992188 112.585938 C 107.992188 112.585938 113.539062 117.082031 115.976562 117.082031 C 118.636719 117.082031 123.851562 112.585938 123.851562 112.585938 C 123.851562 112.585938 125.59375 106.75 126.035156 104.558594 " fill-opacity="1" fill-rule="nonzero"/></g></g><g clip-path="url(#3bd22d120d)"><g clip-path="url(#788017c5a6)"><path fill="#263774" d="M 133.976562 122.964844 L 125.417969 120.238281 C 122.109375 122.773438 115.984375 126.171875 106.546875 120.238281 L 97.992188 122.964844 C 95.121094 123.558594 93.035156 126.046875 92.949219 128.976562 L 100.1875 147.535156 L 100.054688 167.308594 L 99.480469 173.984375 L 115.761719 174.824219 L 132.484375 173.984375 L 131.40625 167.308594 L 131.78125 147.535156 L 139.011719 128.976562 C 138.925781 126.046875 136.84375 123.5625 133.976562 122.964844 " fill-opacity="1" fill-rule="nonzero"/></g></g><g clip-path="url(#c4fd20f6a9)"><g clip-path="url(#08462bafb2)"><path fill="#263774" d="M 134.292969 176.773438 L 140.535156 176.773438 L 141.582031 163.003906 C 141.703125 161.09375 141.691406 159.171875 141.546875 157.261719 L 139.007812 128.976562 L 131.773438 147.535156 L 133.929688 159.359375 L 134.292969 176.773438 " fill-opacity="1" fill-rule="nonzero"/></g></g><g clip-path="url(#aa7cf07cb2)"><g clip-path="url(#4fe64a6ff0)"><path fill="#263774" d="M 91.425781 176.773438 L 97.664062 176.773438 L 98.027344 159.339844 L 100.183594 147.515625 L 92.949219 128.976562 L 90.414062 157.261719 C 90.269531 159.171875 90.257812 161.09375 90.375 163.003906 L 91.425781 176.773438 " fill-opacity="1" fill-rule="nonzero"/></g></g><g clip-path="url(#e6252f8496)"><path fill="#6f6f6f" d="M 150.320312 147.832031 L 81.007812 147.832031 C 78.972656 147.832031 77.328125 146.207031 77.328125 144.203125 L 77.328125 131.222656 C 77.328125 129.21875 78.972656 127.59375 81.007812 127.59375 L 150.320312 127.59375 C 152.351562 127.59375 154 129.21875 154 131.222656 L 154 144.203125 C 154 146.207031 152.351562 147.832031 150.320312 147.832031 " fill-opacity="1" fill-rule="nonzero"/></g><g clip-path="url(#73bf977e3a)"><path fill="#d1cccc" d="M 150.320312 146.457031 L 81.007812 146.457031 C 78.972656 146.457031 77.328125 144.832031 77.328125 142.828125 L 77.328125 129.84375 C 77.328125 127.839844 78.972656 126.214844 81.007812 126.214844 L 150.320312 126.214844 C 152.351562 126.214844 154 127.839844 154 129.84375 L 154 142.828125 C 154 144.832031 152.351562 146.457031 150.320312 146.457031 " fill-opacity="1" fill-rule="nonzero"/></g><g mask="url(#339855e313)"><g transform="matrix(1, 0, 0, 1, 78, 129)"><g clip-path="url(#5ffc3da21e)"><g fill="#000000" fill-opacity="1"><g transform="translate(0.770145, 10.59329)"><g><path d="M 5.984375 -7.703125 L 6.921875 -7.703125 L 6.921875 -2.609375 C 6.921875 -2.023438 6.785156 -1.53125 6.515625 -1.125 C 6.242188 -0.71875 5.878906 -0.40625 5.421875 -0.1875 C 4.960938 0.03125 4.460938 0.140625 3.921875 0.140625 C 3.378906 0.140625 2.878906 0.03125 2.421875 -0.1875 C 1.972656 -0.40625 1.613281 -0.71875 1.34375 -1.125 C 1.070312 -1.53125 0.9375 -2.023438 0.9375 -2.609375 L 0.9375 -7.703125 L 1.859375 -7.703125 L 1.859375 -2.609375 C 1.859375 -2.203125 1.953125 -1.859375 2.140625 -1.578125 C 2.335938 -1.304688 2.59375 -1.097656 2.90625 -0.953125 C 3.21875 -0.804688 3.554688 -0.734375 3.921875 -0.734375 C 4.296875 -0.734375 4.640625 -0.804688 4.953125 -0.953125 C 5.265625 -1.097656 5.515625 -1.304688 5.703125 -1.578125 C 5.890625 -1.859375 5.984375 -2.203125 5.984375 -2.609375 Z M 5.984375 -7.703125 "/></g></g></g><g fill="#000000" fill-opacity="1"><g transform="translate(8.623796, 10.59329)"><g><path d="M 0.8125 2.171875 L 0.8125 -5.78125 L 1.671875 -5.78125 L 1.671875 -4.859375 L 1.78125 -4.859375 C 1.84375 -4.960938 1.929688 -5.09375 2.046875 -5.25 C 2.160156 -5.40625 2.328125 -5.546875 2.546875 -5.671875 C 2.765625 -5.796875 3.066406 -5.859375 3.453125 -5.859375 C 3.929688 -5.859375 4.359375 -5.734375 4.734375 -5.484375 C 5.109375 -5.242188 5.394531 -4.898438 5.59375 -4.453125 C 5.800781 -4.003906 5.90625 -3.476562 5.90625 -2.875 C 5.90625 -2.257812 5.800781 -1.726562 5.59375 -1.28125 C 5.394531 -0.832031 5.109375 -0.484375 4.734375 -0.234375 C 4.367188 0.00390625 3.945312 0.125 3.46875 0.125 C 3.09375 0.125 2.789062 0.0625 2.5625 -0.0625 C 2.34375 -0.1875 2.171875 -0.328125 2.046875 -0.484375 C 1.929688 -0.648438 1.84375 -0.785156 1.78125 -0.890625 L 1.703125 -0.890625 L 1.703125 2.171875 Z M 1.6875 -2.890625 C 1.6875 -2.234375 1.828125 -1.695312 2.109375 -1.28125 C 2.398438 -0.875 2.8125 -0.671875 3.34375 -0.671875 C 3.707031 -0.671875 4.015625 -0.769531 4.265625 -0.96875 C 4.515625 -1.164062 4.703125 -1.429688 4.828125 -1.765625 C 4.960938 -2.097656 5.03125 -2.472656 5.03125 -2.890625 C 5.03125 -3.296875 4.96875 -3.660156 4.84375 -3.984375 C 4.71875 -4.316406 4.53125 -4.578125 4.28125 -4.765625 C 4.03125 -4.960938 3.71875 -5.0625 3.34375 -5.0625 C 2.800781 -5.0625 2.390625 -4.859375 2.109375 -4.453125 C 1.828125 -4.054688 1.6875 -3.535156 1.6875 -2.890625 Z M 1.6875 -2.890625 "/></g></g></g><g fill="#000000" fill-opacity="1"><g transform="translate(15.078233, 10.59329)"><g><path d="M 1.703125 -7.703125 L 1.703125 0 L 0.8125 0 L 0.8125 -7.703125 Z M 1.703125 -7.703125 "/></g></g></g><g fill="#000000" fill-opacity="1"><g transform="translate(17.590803, 10.59329)"><g><path d="M 3.15625 0.125 C 2.632812 0.125 2.175781 0 1.78125 -0.25 C 1.394531 -0.5 1.09375 -0.847656 0.875 -1.296875 C 0.65625 -1.742188 0.546875 -2.265625 0.546875 -2.859375 C 0.546875 -3.460938 0.65625 -3.988281 0.875 -4.4375 C 1.09375 -4.882812 1.394531 -5.234375 1.78125 -5.484375 C 2.175781 -5.734375 2.632812 -5.859375 3.15625 -5.859375 C 3.675781 -5.859375 4.132812 -5.734375 4.53125 -5.484375 C 4.925781 -5.234375 5.234375 -4.882812 5.453125 -4.4375 C 5.671875 -3.988281 5.78125 -3.460938 5.78125 -2.859375 C 5.78125 -2.265625 5.671875 -1.742188 5.453125 -1.296875 C 5.234375 -0.847656 4.925781 -0.5 4.53125 -0.25 C 4.132812 0 3.675781 0.125 3.15625 0.125 Z M 3.15625 -0.671875 C 3.550781 -0.671875 3.875 -0.769531 4.125 -0.96875 C 4.382812 -1.175781 4.578125 -1.445312 4.703125 -1.78125 C 4.828125 -2.113281 4.890625 -2.472656 4.890625 -2.859375 C 4.890625 -3.242188 4.828125 -3.601562 4.703125 -3.9375 C 4.578125 -4.269531 4.382812 -4.539062 4.125 -4.75 C 3.875 -4.957031 3.550781 -5.0625 3.15625 -5.0625 C 2.757812 -5.0625 2.429688 -4.957031 2.171875 -4.75 C 1.921875 -4.539062 1.734375 -4.269531 1.609375 -3.9375 C 1.484375 -3.601562 1.421875 -3.242188 1.421875 -2.859375 C 1.421875 -2.472656 1.484375 -2.113281 1.609375 -1.78125 C 1.734375 -1.445312 1.921875 -1.175781 2.171875 -0.96875 C 2.429688 -0.769531 2.757812 -0.671875 3.15625 -0.671875 Z M 3.15625 -0.671875 "/></g></g></g><g fill="#000000" fill-opacity="1"><g transform="translate(23.909837, 10.59329)"><g><path d="M 2.515625 0.140625 C 2.148438 0.140625 1.816406 0.0703125 1.515625 -0.0625 C 1.210938 -0.207031 0.972656 -0.410156 0.796875 -0.671875 C 0.628906 -0.941406 0.546875 -1.265625 0.546875 -1.640625 C 0.546875 -1.972656 0.609375 -2.238281 0.734375 -2.4375 C 0.867188 -2.644531 1.046875 -2.804688 1.265625 -2.921875 C 1.484375 -3.046875 1.722656 -3.132812 1.984375 -3.1875 C 2.242188 -3.25 2.507812 -3.300781 2.78125 -3.34375 C 3.132812 -3.382812 3.421875 -3.414062 3.640625 -3.4375 C 3.859375 -3.46875 4.019531 -3.507812 4.125 -3.5625 C 4.226562 -3.625 4.28125 -3.726562 4.28125 -3.875 L 4.28125 -3.890625 C 4.28125 -4.265625 4.175781 -4.554688 3.96875 -4.765625 C 3.769531 -4.972656 3.46875 -5.078125 3.0625 -5.078125 C 2.632812 -5.078125 2.300781 -4.984375 2.0625 -4.796875 C 1.820312 -4.609375 1.648438 -4.410156 1.546875 -4.203125 L 0.703125 -4.5 C 0.859375 -4.851562 1.0625 -5.125 1.3125 -5.3125 C 1.5625 -5.507812 1.835938 -5.648438 2.140625 -5.734375 C 2.441406 -5.816406 2.738281 -5.859375 3.03125 -5.859375 C 3.207031 -5.859375 3.414062 -5.832031 3.65625 -5.78125 C 3.90625 -5.738281 4.140625 -5.648438 4.359375 -5.515625 C 4.585938 -5.378906 4.773438 -5.175781 4.921875 -4.90625 C 5.078125 -4.632812 5.15625 -4.269531 5.15625 -3.8125 L 5.15625 0 L 4.28125 0 L 4.28125 -0.78125 L 4.234375 -0.78125 C 4.171875 -0.65625 4.066406 -0.519531 3.921875 -0.375 C 3.785156 -0.238281 3.597656 -0.117188 3.359375 -0.015625 C 3.128906 0.0859375 2.847656 0.140625 2.515625 0.140625 Z M 2.65625 -0.65625 C 3 -0.65625 3.289062 -0.722656 3.53125 -0.859375 C 3.78125 -1.003906 3.96875 -1.1875 4.09375 -1.40625 C 4.21875 -1.625 4.28125 -1.851562 4.28125 -2.09375 L 4.28125 -2.90625 C 4.238281 -2.863281 4.15625 -2.820312 4.03125 -2.78125 C 3.90625 -2.75 3.757812 -2.71875 3.59375 -2.6875 C 3.425781 -2.664062 3.265625 -2.644531 3.109375 -2.625 C 2.953125 -2.601562 2.828125 -2.585938 2.734375 -2.578125 C 2.503906 -2.546875 2.289062 -2.492188 2.09375 -2.421875 C 1.894531 -2.359375 1.734375 -2.257812 1.609375 -2.125 C 1.484375 -2 1.421875 -1.820312 1.421875 -1.59375 C 1.421875 -1.28125 1.535156 -1.046875 1.765625 -0.890625 C 2.003906 -0.734375 2.300781 -0.65625 2.65625 -0.65625 Z M 2.65625 -0.65625 "/></g></g></g><g fill="#000000" fill-opacity="1"><g transform="translate(29.882824, 10.59329)"><g><path d="M 3 0.125 C 2.507812 0.125 2.082031 0.00390625 1.71875 -0.234375 C 1.351562 -0.484375 1.066406 -0.832031 0.859375 -1.28125 C 0.648438 -1.726562 0.546875 -2.257812 0.546875 -2.875 C 0.546875 -3.476562 0.648438 -4.003906 0.859375 -4.453125 C 1.066406 -4.898438 1.351562 -5.242188 1.71875 -5.484375 C 2.09375 -5.734375 2.523438 -5.859375 3.015625 -5.859375 C 3.390625 -5.859375 3.6875 -5.796875 3.90625 -5.671875 C 4.125 -5.546875 4.289062 -5.40625 4.40625 -5.25 C 4.519531 -5.09375 4.613281 -4.960938 4.6875 -4.859375 L 4.75 -4.859375 L 4.75 -7.703125 L 5.640625 -7.703125 L 5.640625 0 L 4.78125 0 L 4.78125 -0.890625 L 4.6875 -0.890625 C 4.613281 -0.785156 4.515625 -0.648438 4.390625 -0.484375 C 4.273438 -0.328125 4.101562 -0.1875 3.875 -0.0625 C 3.65625 0.0625 3.363281 0.125 3 0.125 Z M 3.109375 -0.671875 C 3.648438 -0.671875 4.0625 -0.875 4.34375 -1.28125 C 4.625 -1.695312 4.765625 -2.234375 4.765625 -2.890625 C 4.765625 -3.535156 4.625 -4.054688 4.34375 -4.453125 C 4.0625 -4.859375 3.648438 -5.0625 3.109375 -5.0625 C 2.734375 -5.0625 2.421875 -4.960938 2.171875 -4.765625 C 1.921875 -4.578125 1.734375 -4.316406 1.609375 -3.984375 C 1.484375 -3.660156 1.421875 -3.296875 1.421875 -2.890625 C 1.421875 -2.472656 1.484375 -2.097656 1.609375 -1.765625 C 1.742188 -1.429688 1.9375 -1.164062 2.1875 -0.96875 C 2.4375 -0.769531 2.742188 -0.671875 3.109375 -0.671875 Z M 3.109375 -0.671875 "/></g></g></g><g fill="#000000" fill-opacity="1"><g transform="translate(36.457623, 10.59329)"><g/></g></g><g fill="#000000" fill-opacity="1"><g transform="translate(39.43659, 10.59329)"><g><path d="M 0.9375 0 L 0.9375 -7.703125 L 3.53125 -7.703125 C 4.132812 -7.703125 4.628906 -7.59375 5.015625 -7.375 C 5.398438 -7.15625 5.6875 -6.863281 5.875 -6.5 C 6.0625 -6.132812 6.15625 -5.722656 6.15625 -5.265625 C 6.15625 -4.804688 6.0625 -4.390625 5.875 -4.015625 C 5.695312 -3.648438 5.414062 -3.359375 5.03125 -3.140625 C 4.644531 -2.921875 4.148438 -2.8125 3.546875 -2.8125 L 1.859375 -2.8125 L 1.859375 0 Z M 1.859375 -3.640625 L 3.515625 -3.640625 C 4.140625 -3.640625 4.582031 -3.796875 4.84375 -4.109375 C 5.101562 -4.421875 5.234375 -4.804688 5.234375 -5.265625 C 5.234375 -5.734375 5.101562 -6.117188 4.84375 -6.421875 C 4.582031 -6.722656 4.132812 -6.875 3.5 -6.875 L 1.859375 -6.875 Z M 1.859375 -3.640625 "/></g></g></g><g fill="#000000" fill-opacity="1"><g transform="translate(46.161845, 10.59329)"><g><path d="M 0.8125 0 L 0.8125 -5.78125 L 1.703125 -5.78125 L 1.703125 0 Z M 1.265625 -6.734375 C 1.085938 -6.734375 0.9375 -6.789062 0.8125 -6.90625 C 0.6875 -7.03125 0.625 -7.175781 0.625 -7.34375 C 0.625 -7.507812 0.6875 -7.648438 0.8125 -7.765625 C 0.9375 -7.890625 1.085938 -7.953125 1.265625 -7.953125 C 1.441406 -7.953125 1.585938 -7.890625 1.703125 -7.765625 C 1.828125 -7.648438 1.890625 -7.507812 1.890625 -7.34375 C 1.890625 -7.175781 1.828125 -7.03125 1.703125 -6.90625 C 1.585938 -6.789062 1.441406 -6.734375 1.265625 -6.734375 Z M 1.265625 -6.734375 "/></g></g></g><g fill="#000000" fill-opacity="1"><g transform="translate(48.674416, 10.59329)"><g><path d="M 3.15625 0.125 C 2.613281 0.125 2.144531 0 1.75 -0.25 C 1.363281 -0.507812 1.066406 -0.863281 0.859375 -1.3125 C 0.648438 -1.769531 0.546875 -2.285156 0.546875 -2.859375 C 0.546875 -3.441406 0.648438 -3.957031 0.859375 -4.40625 C 1.078125 -4.863281 1.378906 -5.21875 1.765625 -5.46875 C 2.160156 -5.726562 2.617188 -5.859375 3.140625 -5.859375 C 3.546875 -5.859375 3.910156 -5.78125 4.234375 -5.625 C 4.566406 -5.476562 4.835938 -5.269531 5.046875 -5 C 5.253906 -4.726562 5.382812 -4.410156 5.4375 -4.046875 L 4.546875 -4.046875 C 4.472656 -4.304688 4.320312 -4.539062 4.09375 -4.75 C 3.863281 -4.957031 3.550781 -5.0625 3.15625 -5.0625 C 2.632812 -5.0625 2.210938 -4.863281 1.890625 -4.46875 C 1.578125 -4.070312 1.421875 -3.546875 1.421875 -2.890625 C 1.421875 -2.222656 1.578125 -1.6875 1.890625 -1.28125 C 2.210938 -0.875 2.632812 -0.671875 3.15625 -0.671875 C 3.5 -0.671875 3.796875 -0.757812 4.046875 -0.9375 C 4.296875 -1.125 4.460938 -1.375 4.546875 -1.6875 L 5.4375 -1.6875 C 5.382812 -1.34375 5.257812 -1.035156 5.0625 -0.765625 C 4.863281 -0.492188 4.601562 -0.273438 4.28125 -0.109375 C 3.957031 0.046875 3.582031 0.125 3.15625 0.125 Z M 3.15625 0.125 "/></g></g></g><g fill="#000000" fill-opacity="1"><g transform="translate(54.587215, 10.59329)"><g><path d="M 3.328125 -5.78125 L 3.328125 -5.03125 L 2.09375 -5.03125 L 2.09375 -1.65625 C 2.09375 -1.40625 2.128906 -1.21875 2.203125 -1.09375 C 2.273438 -0.96875 2.367188 -0.882812 2.484375 -0.84375 C 2.597656 -0.800781 2.722656 -0.78125 2.859375 -0.78125 C 2.953125 -0.78125 3.03125 -0.785156 3.09375 -0.796875 C 3.15625 -0.804688 3.207031 -0.816406 3.25 -0.828125 L 3.4375 -0.03125 C 3.375 -0.0078125 3.285156 0.0078125 3.171875 0.03125 C 3.066406 0.0625 2.929688 0.078125 2.765625 0.078125 C 2.515625 0.078125 2.269531 0.0234375 2.03125 -0.078125 C 1.789062 -0.191406 1.59375 -0.359375 1.4375 -0.578125 C 1.28125 -0.796875 1.203125 -1.078125 1.203125 -1.421875 L 1.203125 -5.03125 L 0.328125 -5.03125 L 0.328125 -5.78125 L 1.203125 -5.78125 L 1.203125 -7.15625 L 2.09375 -7.15625 L 2.09375 -5.78125 Z M 3.328125 -5.78125 "/></g></g></g><g fill="#000000" fill-opacity="1"><g transform="translate(58.438813, 10.59329)"><g><path d="M 4.453125 -2.359375 L 4.453125 -5.78125 L 5.34375 -5.78125 L 5.34375 0 L 4.453125 0 L 4.453125 -0.984375 L 4.390625 -0.984375 C 4.253906 -0.679688 4.039062 -0.425781 3.75 -0.21875 C 3.46875 -0.0195312 3.109375 0.078125 2.671875 0.078125 C 2.128906 0.078125 1.679688 -0.0976562 1.328125 -0.453125 C 0.984375 -0.816406 0.8125 -1.367188 0.8125 -2.109375 L 0.8125 -5.78125 L 1.703125 -5.78125 L 1.703125 -2.171875 C 1.703125 -1.742188 1.816406 -1.40625 2.046875 -1.15625 C 2.285156 -0.90625 2.59375 -0.78125 2.96875 -0.78125 C 3.1875 -0.78125 3.410156 -0.835938 3.640625 -0.953125 C 3.867188 -1.066406 4.0625 -1.238281 4.21875 -1.46875 C 4.375 -1.707031 4.453125 -2.003906 4.453125 -2.359375 Z M 4.453125 -2.359375 "/></g></g></g><g fill="#000000" fill-opacity="1"><g transform="translate(64.592337, 10.59329)"><g><path d="M 0.8125 0 L 0.8125 -5.78125 L 1.671875 -5.78125 L 1.671875 -4.90625 L 1.734375 -4.90625 C 1.835938 -5.1875 2.023438 -5.414062 2.296875 -5.59375 C 2.578125 -5.78125 2.890625 -5.875 3.234375 -5.875 C 3.390625 -5.875 3.53125 -5.851562 3.65625 -5.8125 C 3.78125 -5.769531 3.882812 -5.71875 3.96875 -5.65625 L 3.671875 -4.90625 C 3.609375 -4.9375 3.535156 -4.960938 3.453125 -4.984375 C 3.367188 -5.003906 3.269531 -5.015625 3.15625 -5.015625 C 2.738281 -5.015625 2.390625 -4.882812 2.109375 -4.625 C 1.835938 -4.363281 1.703125 -4.039062 1.703125 -3.65625 L 1.703125 0 Z M 0.8125 0 "/></g></g></g><g fill="#000000" fill-opacity="1"><g transform="translate(68.654565, 10.59329)"><g><path d="M 3.234375 0.125 C 2.679688 0.125 2.203125 0 1.796875 -0.25 C 1.390625 -0.5 1.078125 -0.84375 0.859375 -1.28125 C 0.648438 -1.726562 0.546875 -2.25 0.546875 -2.84375 C 0.546875 -3.4375 0.648438 -3.957031 0.859375 -4.40625 C 1.078125 -4.863281 1.378906 -5.21875 1.765625 -5.46875 C 2.160156 -5.726562 2.617188 -5.859375 3.140625 -5.859375 C 3.441406 -5.859375 3.738281 -5.804688 4.03125 -5.703125 C 4.332031 -5.597656 4.601562 -5.429688 4.84375 -5.203125 C 5.082031 -4.984375 5.269531 -4.6875 5.40625 -4.3125 C 5.550781 -3.945312 5.625 -3.5 5.625 -2.96875 L 5.625 -2.59375 L 1.4375 -2.59375 C 1.457031 -1.96875 1.628906 -1.488281 1.953125 -1.15625 C 2.285156 -0.832031 2.710938 -0.671875 3.234375 -0.671875 C 3.585938 -0.671875 3.890625 -0.742188 4.140625 -0.890625 C 4.390625 -1.046875 4.570312 -1.273438 4.6875 -1.578125 L 5.53125 -1.34375 C 5.394531 -0.90625 5.125 -0.550781 4.71875 -0.28125 C 4.3125 -0.0078125 3.816406 0.125 3.234375 0.125 Z M 1.4375 -3.359375 L 4.71875 -3.359375 C 4.71875 -3.847656 4.578125 -4.253906 4.296875 -4.578125 C 4.015625 -4.898438 3.628906 -5.0625 3.140625 -5.0625 C 2.804688 -5.0625 2.515625 -4.976562 2.265625 -4.8125 C 2.015625 -4.65625 1.816406 -4.445312 1.671875 -4.1875 C 1.535156 -3.925781 1.457031 -3.648438 1.4375 -3.359375 Z M 1.4375 -3.359375 "/></g></g></g></g></g></g></svg>