<!DOCTYPE svg PUBLIC "-//W3C//DTD SVG 1.1//EN" "http://www.w3.org/Graphics/SVG/1.1/DTD/svg11.dtd">
<!-- Uploaded to: SVG Repo, www.svgrepo.com, Transformed by: SVG Repo Mixer Tools -->
<svg fill="#adadaf" height="800px" width="800px" version="1.1" id="Capa_1" xmlns="http://www.w3.org/2000/svg" xmlns:xlink="http://www.w3.org/1999/xlink" viewBox="0 0 491.9 491.9" xml:space="preserve" transform="matrix(-1, 0, 0, 1, 0, 0)">
<g id="SVGRepo_bgCarrier" stroke-width="0"/>
<g id="SVGRepo_tracerCarrier" stroke-linecap="round" stroke-linejoin="round"/>
<g id="SVGRepo_iconCarrier"> <g> <g> <path d="M441.249,0h-390.4c-28,0-50.8,22.8-50.8,50.8v390.4c0,28,22.8,50.7,50.7,50.7h390.4c28,0,50.7-22.8,50.7-50.7V50.8 C492.049,22.8,469.249,0,441.249,0z M432.349,304l-77-77c-4.3-4.3-11.4-4.3-15.7,0l-55.9,55.9l-96.7-96.7 c-4.3-4.3-11.4-4.3-15.7,0l-111.6,111.4V59.7h372.6V304z"/> <circle cx="297.049" cy="139.9" r="42.9"/> </g> </g> </g>
</svg>